<svg width="60" height="60" viewBox="0 0 60 60" fill="none" xmlns="http://www.w3.org/2000/svg">
<path d="M52.8684 38.9685H16.2221L10.793 14.3438H58.0066C58.4914 14.3438 58.7822 14.8285 58.6853 15.2163L53.547 38.3868C53.547 38.6777 53.2562 38.9685 52.8684 38.9685Z" stroke="#124FB3" stroke-width="2" stroke-miterlimit="10" stroke-linecap="round" stroke-linejoin="round"/>
<path d="M34.8359 14.2461V38.9678" stroke="#124FB3" stroke-width="2" stroke-miterlimit="10" stroke-linejoin="round"/>
<path d="M21.3594 14.2461L25.9159 38.9678" stroke="#124FB3" stroke-width="2" stroke-miterlimit="10" stroke-linejoin="round"/>
<path d="M48.2128 14.2461L43.6562 38.9678" stroke="#124FB3" stroke-width="2" stroke-miterlimit="10" stroke-linejoin="round"/>
<path d="M1 3H8.27109L18.2567 47.7899H52.0916" stroke="#124FB3" stroke-width="2" stroke-miterlimit="10" stroke-linecap="round" stroke-linejoin="round"/>
<path d="M18.1613 56.9984C20.7314 56.9984 22.8148 54.915 22.8148 52.3449C22.8148 49.7749 20.7314 47.6914 18.1613 47.6914C15.5913 47.6914 13.5078 49.7749 13.5078 52.3449C13.5078 54.915 15.5913 56.9984 18.1613 56.9984Z" stroke="#124FB3" stroke-width="2" stroke-miterlimit="10" stroke-linecap="round" stroke-linejoin="round"/>
<path d="M52.091 56.9984C54.6611 56.9984 56.7445 54.915 56.7445 52.3449C56.7445 49.7749 54.6611 47.6914 52.091 47.6914C49.5209 47.6914 47.4375 49.7749 47.4375 52.3449C47.4375 54.915 49.5209 56.9984 52.091 56.9984Z" stroke="#124FB3" stroke-width="2" stroke-miterlimit="10" stroke-linecap="round" stroke-linejoin="round"/>
<path d="M13.6016 27.625H55.9678" stroke="#124FB3" stroke-width="2" stroke-miterlimit="10" stroke-linejoin="round"/>
</svg>
