<svg width="660" height="84" viewBox="0 0 660 84" fill="none" xmlns="http://www.w3.org/2000/svg">
<g clip-path="url(#clip0_28_577)">
<path d="M34.5206 14.7377C39.3053 8.60682 44.0607 2.71174 46.2329 0H0V76.5181H49.9609C49.9609 76.5181 45.499 71.5663 35.0489 59.5403C22.4853 45.0679 24.0998 28.0901 34.5206 14.7377Z" fill="white"/>
<path d="M49.9609 76.5181H84.3347C92.9355 67.3218 98.8357 58.0371 98.8357 47.927C98.8357 40.3223 97.2799 34.4567 94.8142 29.7996C92.3191 25.1425 91.732 20.7212 94.8142 16.8894C96.7809 14.4724 105.382 3.53705 108.17 0H73.8846C70.5089 4.18551 61.2036 15.6809 57.094 20.6623C52.0157 26.8226 50.5774 38.2591 58.7378 46.3943L65.6067 37.8759C69.4815 42.0319 70.5382 50.963 65.8709 56.7696C61.233 62.5763 54.7457 70.6525 49.9609 76.5181Z" fill="white"/>
<path d="M115.246 44.626H122.056V57.5362L134.18 44.626H142.692L130.569 56.9172L143.866 75.752H135.324L125.99 61.7512L122.086 65.7304V75.752H115.275V44.626H115.246Z" fill="white"/>
<path d="M162.771 72.244C160.393 75.3389 157.252 76.5179 154.258 76.5179C144.659 76.5179 139.023 69.3259 139.023 60.3359C139.023 51.0807 144.659 43.8887 154.258 43.8887C160.599 43.8887 166.587 47.8089 167.321 54.883H160.804C160.012 51.4344 157.458 49.6364 154.258 49.6364C148.123 49.6364 145.834 54.883 145.834 60.3359C145.834 65.5236 148.123 70.7702 154.258 70.7702C158.691 70.7702 161.245 68.3827 161.656 64.0499H154.787V58.9506H167.82V75.7811H163.475L162.771 72.244Z" fill="white"/>
<path d="M175.717 65.4354C175.717 69.5914 178.946 71.1831 182.586 71.1831C184.964 71.1831 188.633 70.4757 188.633 67.2923C188.633 63.9321 183.995 63.3721 179.416 62.1341C174.807 60.9256 170.169 59.1276 170.169 53.2915C170.169 46.9248 176.157 43.8594 181.764 43.8594C188.251 43.8594 194.181 46.689 194.181 53.881H187.576C187.371 50.1376 184.699 49.1649 181.441 49.1649C179.269 49.1649 176.744 50.0787 176.744 52.702C176.744 55.0895 178.212 55.4137 185.991 57.4181C188.251 57.9781 195.208 59.4224 195.208 66.4965C195.208 72.2147 190.746 76.4886 182.292 76.4886C175.423 76.4886 168.995 73.099 169.083 65.4059H175.717V65.4354Z" fill="white"/>
<path d="M212.203 44.626H226.205C233.925 44.626 236.949 49.5484 236.949 54.6181C236.949 59.6879 233.955 64.6103 226.205 64.6103H219.043V75.7815H212.232V44.626H212.203ZM219.043 59.3047H224.356C227.526 59.3047 230.344 58.5973 230.344 54.6476C230.344 50.6979 227.526 49.9905 224.356 49.9905H219.043V59.3047Z" fill="white"/>
<path d="M238.74 44.626H244.905V56.3572H245.022C246.578 53.8223 249.278 52.6138 251.568 52.6138C258.114 52.6138 259.787 56.3277 259.787 61.8986V75.7815H253.623V63.0481C253.623 59.3342 252.537 57.5067 249.66 57.5067C246.314 57.5067 244.875 59.3932 244.875 63.9618V75.7815H238.711V44.626H238.74Z" fill="white"/>
<path d="M268.711 49.7252H262.547V44.626H268.711V49.7252ZM262.547 53.2328H268.711V75.7815H262.547V53.2328Z" fill="white"/>
<path d="M272.352 44.626H278.516V75.7815H272.352V44.626Z" fill="white"/>
<path d="M288.348 49.7252H282.184V44.626H288.348V49.7252ZM282.184 53.2328H288.348V75.7815H282.184V53.2328Z" fill="white"/>
<path d="M291.93 53.2326H297.801V56.1212H297.889C299.356 53.7337 301.793 52.6431 304.581 52.6431C311.626 52.6431 314.797 58.3613 314.797 64.7575C314.797 70.7704 311.509 76.4002 304.934 76.4002C302.233 76.4002 299.679 75.2212 298.211 73.0106H298.123V83.7101H291.959V53.2326H291.93ZM308.603 64.5806C308.603 61.0141 307.165 57.3002 303.202 57.3002C299.151 57.3002 297.859 60.9257 297.859 64.5806C297.859 68.2356 299.239 71.7431 303.26 71.7431C307.311 71.7136 308.603 68.2356 308.603 64.5806Z" fill="white"/>
<path d="M316.5 53.2326H322.371V56.1212H322.459C323.927 53.7337 326.363 52.6431 329.152 52.6431C336.197 52.6431 339.367 58.3613 339.367 64.7575C339.367 70.7704 336.079 76.4002 329.504 76.4002C326.803 76.4002 324.25 75.2212 322.782 73.0106H322.694V83.7101H316.529V53.2326H316.5ZM333.173 64.5806C333.173 61.0141 331.735 57.3002 327.772 57.3002C323.721 57.3002 322.43 60.9257 322.43 64.5806C322.43 68.2356 323.809 71.7431 327.831 71.7431C331.882 71.7136 333.173 68.2356 333.173 64.5806Z" fill="white"/>
<path d="M347.289 49.7252H341.125V44.626H347.289V49.7252ZM341.125 53.2328H347.289V75.7815H341.125V53.2328Z" fill="white"/>
<path d="M349.992 53.2326H355.863V56.3864H355.98C357.536 53.8516 360.237 52.6431 362.849 52.6431C369.395 52.6431 371.068 56.357 371.068 61.9278V75.8107H364.904V63.0774C364.904 59.3635 363.818 57.536 360.941 57.536C357.595 57.536 356.157 59.4224 356.157 63.9911V75.8107H349.992V53.2326Z" fill="white"/>
<path d="M379.61 66.0249C379.786 69.9451 381.694 71.7431 385.128 71.7431C387.594 71.7431 389.59 70.2104 390.001 68.8251H395.432C393.7 74.1601 390.001 76.4297 384.923 76.4297C377.848 76.4297 373.445 71.5368 373.445 64.5511C373.445 57.8013 378.083 52.6431 384.923 52.6431C392.555 52.6431 396.254 59.0982 395.813 66.0249H379.61ZM389.649 62.0752C389.091 58.9213 387.741 57.2707 384.747 57.2707C380.843 57.2707 379.698 60.3361 379.61 62.0752H389.649Z" fill="white"/>
<path d="M402.799 68.4421C402.828 71.1538 405.088 72.2444 407.525 72.2444C409.315 72.2444 411.576 71.537 411.576 69.3558C411.576 67.4694 409.022 66.8209 404.589 65.8777C401.037 65.0819 397.456 63.8144 397.456 59.8647C397.456 54.117 402.417 52.6138 407.231 52.6138C412.133 52.6138 416.654 54.2644 417.123 59.8058H411.253C411.077 57.4183 409.257 56.7403 407.026 56.7403C405.646 56.7403 403.591 57.0056 403.591 58.8331C403.591 61.0437 407.055 61.368 410.577 62.1933C414.188 63.0186 417.711 64.345 417.711 68.5305C417.711 74.455 412.574 76.3709 407.466 76.3709C402.241 76.3709 397.163 74.3961 396.898 68.4421H402.799Z" fill="white"/>
<path d="M453.023 55.1191C452.583 52.0242 449.648 49.6662 446.243 49.6662C440.108 49.6662 437.818 54.9128 437.818 60.3657C437.818 65.5534 440.108 70.8 446.243 70.8C450.411 70.8 452.759 67.9114 453.288 63.8144H459.892C459.188 71.5664 453.845 76.5477 446.243 76.5477C436.644 76.5477 431.008 69.3557 431.008 60.3657C431.008 51.1105 436.644 43.9185 446.243 43.9185C453.053 43.9185 458.806 47.9271 459.628 55.1191H453.023Z" fill="white"/>
<path d="M473.161 52.6138C480.236 52.6138 484.815 57.3298 484.815 64.5218C484.815 71.6844 480.265 76.4004 473.161 76.4004C466.116 76.4004 461.566 71.6844 461.566 64.5218C461.566 57.3298 466.116 52.6138 473.161 52.6138ZM473.161 71.7138C477.388 71.7138 478.621 68.0884 478.621 64.5218C478.621 60.8964 477.359 57.2709 473.161 57.2709C468.993 57.2709 467.731 60.8964 467.731 64.5218C467.731 68.1178 468.993 71.7138 473.161 71.7138Z" fill="white"/>
<path d="M486.578 53.2328H492.449V57.4183H492.537C493.653 54.5886 496.705 52.6138 499.699 52.6138C500.14 52.6138 500.668 52.7022 501.05 52.8201V58.5678C500.492 58.4499 499.582 58.3615 498.848 58.3615C494.328 58.3615 492.772 61.6332 492.772 65.6124V75.7814H486.607V53.2328H486.578Z" fill="white"/>
<path d="M502.281 53.2326H508.152V56.1212H508.24C509.708 53.7337 512.144 52.6431 514.933 52.6431C521.978 52.6431 525.148 58.3613 525.148 64.7575C525.148 70.7704 521.861 76.4002 515.285 76.4002C512.585 76.4002 510.031 75.2212 508.563 73.0106H508.475V83.7101H502.311V53.2326H502.281ZM518.984 64.5806C518.984 61.0141 517.545 57.3002 513.583 57.3002C509.532 57.3002 508.24 60.9257 508.24 64.5806C508.24 68.2356 509.62 71.7431 513.641 71.7431C517.663 71.7136 518.984 68.2356 518.984 64.5806Z" fill="white"/>
<path d="M538.388 52.6138C545.462 52.6138 550.042 57.3298 550.042 64.5218C550.042 71.6844 545.492 76.4004 538.388 76.4004C531.343 76.4004 526.793 71.6844 526.793 64.5218C526.793 57.3298 531.372 52.6138 538.388 52.6138ZM538.388 71.7138C542.615 71.7138 543.848 68.0884 543.848 64.5218C543.848 60.8964 542.586 57.2709 538.388 57.2709C534.22 57.2709 532.957 60.8964 532.957 64.5218C532.957 68.1178 534.22 71.7138 538.388 71.7138Z" fill="white"/>
<path d="M551.832 53.2328H557.703V57.4183H557.791C558.906 54.5886 561.959 52.6138 564.953 52.6138C565.394 52.6138 565.922 52.7022 566.304 52.8201V58.5678C565.746 58.4499 564.836 58.3615 564.102 58.3615C559.582 58.3615 558.026 61.6332 558.026 65.6124V75.7814H551.861V53.2328H551.832Z" fill="white"/>
<path d="M567.359 60.1595C567.711 54.3528 572.877 52.6138 577.926 52.6138C582.388 52.6138 587.789 53.6159 587.789 59.0394V70.7706C587.789 72.8339 587.995 74.8677 588.582 75.7814H582.329C582.124 75.074 581.948 74.3371 581.889 73.6003C579.922 75.6635 577.075 76.4004 574.316 76.4004C570.059 76.4004 566.684 74.2487 566.684 69.6506C566.684 64.5513 570.5 63.3133 574.316 62.8123C578.102 62.2522 581.625 62.3701 581.625 59.8352C581.625 57.1825 579.805 56.7698 577.633 56.7698C575.284 56.7698 573.758 57.7425 573.552 60.1595H567.359ZM581.625 64.7576C580.568 65.6714 578.396 65.7303 576.488 66.0546C574.58 66.4377 572.848 67.1157 572.848 69.3558C572.848 71.6549 574.639 72.2444 576.635 72.2444C581.449 72.2444 581.625 68.4126 581.625 67.0567V64.7576Z" fill="white"/>
<path d="M599.062 53.2328H603.583V57.3888H599.062V68.56C599.062 70.6527 599.591 71.1833 601.675 71.1833C602.321 71.1833 602.937 71.1538 603.583 71.0064V75.8404C602.526 76.0173 601.205 76.0467 599.972 76.0467C596.186 76.0467 592.898 75.1625 592.898 70.6822V57.3888H589.141V53.2328H592.869V46.4829H599.033V53.2328H599.062Z" fill="white"/>
<path d="M612.067 49.7252H605.902V44.626H612.067V49.7252ZM605.902 53.2328H612.067V75.7815H605.902V53.2328Z" fill="white"/>
<path d="M625.509 52.6138C632.583 52.6138 637.163 57.3298 637.163 64.5218C637.163 71.6844 632.613 76.4004 625.509 76.4004C618.464 76.4004 613.914 71.6844 613.914 64.5218C613.914 57.3298 618.464 52.6138 625.509 52.6138ZM625.509 71.7138C629.736 71.7138 630.969 68.0884 630.969 64.5218C630.969 60.8964 629.707 57.2709 625.509 57.2709C621.341 57.2709 620.078 60.8964 620.078 64.5218C620.078 68.1178 621.341 71.7138 625.509 71.7138Z" fill="white"/>
<path d="M638.926 53.2326H644.797V56.3864H644.914C646.47 53.8516 649.17 52.6431 651.783 52.6431C658.329 52.6431 660.002 56.357 660.002 61.9278V75.8107H653.838V63.0774C653.838 59.3635 652.752 57.536 649.875 57.536C646.528 57.536 645.09 59.4224 645.09 63.9911V75.8107H638.926V53.2326Z" fill="white"/>
</g>
<defs>
<clipPath id="clip0_28_577">
<rect width="660" height="84" fill="white"/>
</clipPath>
</defs>
</svg>
