<svg width="560" height="70" viewBox="0 0 560 70" fill="none" xmlns="http://www.w3.org/2000/svg">
<g clip-path="url(#clip0_347_129550)">
<path d="M29.2902 12.2814C33.3499 7.17235 37.3848 2.25978 39.2279 0H0V63.7651H42.391C42.391 63.7651 38.6052 59.6386 29.7385 49.6169C19.0785 37.5566 20.4483 23.4084 29.2902 12.2814Z" fill="white"/>
<path d="M42.3906 63.7651H71.5563C78.8539 56.1015 83.8601 48.3642 83.8601 39.9392C83.8601 33.602 82.5401 28.714 80.4479 24.833C78.3309 20.9521 77.8327 17.2677 80.4479 14.0745C82.1167 12.0604 89.4143 2.94754 91.7804 0H62.6895C59.8252 3.48792 51.9299 13.0674 48.4429 17.2185C44.1341 22.3522 42.9137 31.8826 49.8377 38.6619L55.6658 31.5632C58.9535 35.0266 59.8502 42.4691 55.89 47.308C51.9548 52.1469 46.4504 58.8771 42.3906 63.7651Z" fill="white"/>
<path d="M97.7832 37.188H103.562V47.9465L113.848 37.188H121.071L110.784 47.4307L122.067 63.1263H114.819L106.899 51.459L103.586 54.775V63.1263H97.8081V37.188H97.7832Z" fill="white"/>
<path d="M138.107 60.2032C136.09 62.7823 133.425 63.7648 130.885 63.7648C122.74 63.7648 117.958 57.7715 117.958 50.2798C117.958 42.5671 122.74 36.5737 130.885 36.5737C136.264 36.5737 141.345 39.8406 141.968 45.7357H136.439C135.766 42.8618 133.599 41.3635 130.885 41.3635C125.679 41.3635 123.736 45.7357 123.736 50.2798C123.736 54.6029 125.679 58.975 130.885 58.975C134.645 58.975 136.812 56.9854 137.161 53.3747H131.333V49.1253H142.391V63.1507H138.705L138.107 60.2032Z" fill="white"/>
<path d="M149.091 54.5293C149.091 57.9927 151.83 59.3191 154.919 59.3191C156.936 59.3191 160.049 58.7296 160.049 56.0768C160.049 53.2766 156.114 52.8099 152.229 51.7783C148.318 50.7712 144.383 49.2729 144.383 44.4094C144.383 39.1039 149.464 36.5493 154.221 36.5493C159.726 36.5493 164.757 38.9073 164.757 44.9007H159.153C158.979 41.7812 156.712 40.9706 153.947 40.9706C152.104 40.9706 149.962 41.7321 149.962 43.9182C149.962 45.9078 151.208 46.1779 157.808 47.8482C159.726 48.3149 165.629 49.5185 165.629 55.4136C165.629 60.1788 161.843 63.7404 154.67 63.7404C148.842 63.7404 143.387 60.9157 143.462 54.5048H149.091V54.5293Z" fill="white"/>
<path d="M180.05 37.188H191.93C198.481 37.188 201.046 41.29 201.046 45.5148C201.046 49.7396 198.506 53.8416 191.93 53.8416H185.853V63.1509H180.075V37.188H180.05ZM185.853 49.4203H190.361C193.051 49.4203 195.442 48.8308 195.442 45.5394C195.442 42.2479 193.051 41.6584 190.361 41.6584H185.853V49.4203Z" fill="white"/>
<path d="M202.565 37.188H207.795V46.964H207.895C209.215 44.8516 211.506 43.8445 213.449 43.8445C219.003 43.8445 220.423 46.9394 220.423 51.5818V63.1509H215.193V52.5398C215.193 49.4448 214.271 47.922 211.83 47.922C208.991 47.922 207.77 49.494 207.77 53.3012V63.1509H202.54V37.188H202.565Z" fill="white"/>
<path d="M227.995 41.4374H222.765V37.188H227.995V41.4374ZM222.765 44.3603H227.995V63.1509H222.765V44.3603Z" fill="white"/>
<path d="M231.083 37.188H236.313V63.1509H231.083V37.188Z" fill="white"/>
<path d="M244.657 41.4374H239.427V37.188H244.657V41.4374ZM239.427 44.3603H244.657V63.1509H239.427V44.3603Z" fill="white"/>
<path d="M247.696 44.3604H252.678V46.7676H252.752C253.998 44.778 256.065 43.8691 258.431 43.8691C264.409 43.8691 267.099 48.6343 267.099 53.9645C267.099 58.9753 264.309 63.6668 258.73 63.6668C256.439 63.6668 254.272 62.6843 253.026 60.8421H252.952V69.7584H247.721V44.3604H247.696ZM261.843 53.8171C261.843 50.845 260.623 47.7501 257.26 47.7501C253.823 47.7501 252.727 50.7713 252.727 53.8171C252.727 56.8629 253.898 59.7859 257.31 59.7859C260.747 59.7613 261.843 56.8629 261.843 53.8171Z" fill="white"/>
<path d="M268.543 44.3604H273.524V46.7676H273.599C274.844 44.778 276.912 43.8691 279.278 43.8691C285.255 43.8691 287.945 48.6343 287.945 53.9645C287.945 58.9753 285.156 63.6668 279.577 63.6668C277.285 63.6668 275.118 62.6843 273.873 60.8421H273.798V69.7584H268.568V44.3604H268.543ZM282.69 53.8171C282.69 50.845 281.47 47.7501 278.107 47.7501C274.67 47.7501 273.574 50.7713 273.574 53.8171C273.574 56.8629 274.745 59.7859 278.157 59.7859C281.594 59.7613 282.69 56.8629 282.69 53.8171Z" fill="white"/>
<path d="M294.67 41.4374H289.439V37.188H294.67V41.4374ZM289.439 44.3603H294.67V63.1509H289.439V44.3603Z" fill="white"/>
<path d="M296.961 44.3604H301.942V46.9886H302.042C303.362 44.8762 305.653 43.8691 307.87 43.8691C313.424 43.8691 314.844 46.9641 314.844 51.6064V63.1755H309.613V52.5644C309.613 49.4695 308.692 47.9466 306.251 47.9466C303.412 47.9466 302.191 49.5186 302.191 53.3258V63.1755H296.961V44.3604Z" fill="white"/>
<path d="M322.092 55.0207C322.241 58.2875 323.86 59.7859 326.774 59.7859C328.866 59.7859 330.56 58.5086 330.909 57.3541H335.516C334.047 61.8 330.909 63.6913 326.6 63.6913C320.597 63.6913 316.861 59.6139 316.861 53.7925C316.861 48.1676 320.797 43.8691 326.6 43.8691C333.076 43.8691 336.214 49.2484 335.84 55.0207H322.092ZM330.61 51.7292C330.137 49.101 328.991 47.7255 326.45 47.7255C323.138 47.7255 322.166 50.28 322.092 51.7292H330.61Z" fill="white"/>
<path d="M341.768 57.0345C341.793 59.2943 343.711 60.2031 345.778 60.2031C347.297 60.2031 349.215 59.6136 349.215 57.7959C349.215 56.2239 347.048 55.6835 343.287 54.8975C340.274 54.2343 337.235 53.1781 337.235 49.8867C337.235 45.0969 341.444 43.8442 345.529 43.8442C349.688 43.8442 353.524 45.2198 353.922 49.8376H348.941C348.792 47.848 347.247 47.283 345.354 47.283C344.184 47.283 342.44 47.5041 342.44 49.027C342.44 50.8692 345.379 51.1394 348.368 51.8272C351.432 52.5149 354.421 53.6202 354.421 57.1082C354.421 62.0453 350.062 63.6419 345.728 63.6419C341.295 63.6419 336.986 61.9962 336.762 57.0345H341.768Z" fill="white"/>
<path d="M384.383 45.9325C384.009 43.3534 381.519 41.3884 378.63 41.3884C373.424 41.3884 371.481 45.7606 371.481 50.3047C371.481 54.6278 373.424 58.9999 378.63 58.9999C382.166 58.9999 384.159 56.5928 384.607 53.1785H390.211C389.613 59.6386 385.08 63.7897 378.63 63.7897C370.485 63.7897 365.703 57.7964 365.703 50.3047C365.703 42.592 370.485 36.5986 378.63 36.5986C384.408 36.5986 389.29 39.9392 389.987 45.9325H384.383Z" fill="white"/>
<path d="M401.469 43.8442C407.471 43.8442 411.357 47.7743 411.357 53.7676C411.357 59.7364 407.496 63.6665 401.469 63.6665C395.491 63.6665 391.631 59.7364 391.631 53.7676C391.631 47.7743 395.491 43.8442 401.469 43.8442ZM401.469 59.761C405.056 59.761 406.102 56.7397 406.102 53.7676C406.102 50.7464 405.031 47.7252 401.469 47.7252C397.932 47.7252 396.861 50.7464 396.861 53.7676C396.861 56.7643 397.932 59.761 401.469 59.761Z" fill="white"/>
<path d="M412.852 44.3601H417.833V47.848H417.908C418.854 45.4899 421.444 43.8442 423.985 43.8442C424.358 43.8442 424.807 43.9179 425.131 44.0162V48.8059C424.657 48.7077 423.885 48.634 423.263 48.634C419.427 48.634 418.107 51.3605 418.107 54.6764V63.1506H412.876V44.3601H412.852Z" fill="white"/>
<path d="M426.177 44.3604H431.158V46.7676H431.233C432.478 44.778 434.545 43.8691 436.911 43.8691C442.889 43.8691 445.579 48.6343 445.579 53.9645C445.579 58.9753 442.789 63.6668 437.21 63.6668C434.919 63.6668 432.752 62.6843 431.507 60.8421H431.432V69.7584H426.202V44.3604H426.177ZM440.349 53.8171C440.349 50.845 439.128 47.7501 435.766 47.7501C432.329 47.7501 431.233 50.7713 431.233 53.8171C431.233 56.8629 432.403 59.7859 435.816 59.7859C439.228 59.7613 440.349 56.8629 440.349 53.8171Z" fill="white"/>
<path d="M456.812 43.8442C462.814 43.8442 466.7 47.7743 466.7 53.7676C466.7 59.7364 462.839 63.6665 456.812 63.6665C450.834 63.6665 446.974 59.7364 446.974 53.7676C446.974 47.7743 450.859 43.8442 456.812 43.8442ZM456.812 59.761C460.398 59.761 461.444 56.7397 461.444 53.7676C461.444 50.7464 460.373 47.7252 456.812 47.7252C453.275 47.7252 452.204 50.7464 452.204 53.7676C452.204 56.7643 453.275 59.761 456.812 59.761Z" fill="white"/>
<path d="M468.219 44.3601H473.2V47.848H473.275C474.221 45.4899 476.812 43.8442 479.352 43.8442C479.726 43.8442 480.174 43.9179 480.498 44.0162V48.8059C480.024 48.7077 479.252 48.634 478.63 48.634C474.794 48.634 473.474 51.3605 473.474 54.6764V63.1506H468.244V44.3601H468.219Z" fill="white"/>
<path d="M481.395 50.1323C481.694 45.2934 486.078 43.8442 490.362 43.8442C494.147 43.8442 498.73 44.6794 498.73 49.1989V58.9749C498.73 60.6943 498.904 62.3892 499.403 63.1506H494.097C493.923 62.5611 493.774 61.947 493.724 61.333C492.055 63.0524 489.639 63.6665 487.298 63.6665C483.687 63.6665 480.822 61.8734 480.822 58.0416C480.822 53.7922 484.06 52.7605 487.298 52.343C490.511 51.8763 493.5 51.9745 493.5 49.8621C493.5 47.6515 491.956 47.3076 490.112 47.3076C488.12 47.3076 486.825 48.1182 486.65 50.1323H481.395ZM493.5 53.9641C492.603 54.7256 490.76 54.7747 489.141 55.0449C487.522 55.3642 486.053 55.9292 486.053 57.7959C486.053 59.7118 487.572 60.2031 489.266 60.2031C493.35 60.2031 493.5 57.0099 493.5 55.88V53.9641Z" fill="white"/>
<path d="M508.293 44.3602H512.129V47.8236H508.293V57.1329C508.293 58.8769 508.742 59.319 510.51 59.319C511.058 59.319 511.581 59.2944 512.129 59.1716V63.1999C511.232 63.3473 510.112 63.3719 509.066 63.3719C505.853 63.3719 503.063 62.635 503.063 58.9014V47.8236H499.875V44.3602H503.038V38.7354H508.269V44.3602H508.293Z" fill="white"/>
<path d="M519.327 41.4374H514.097V37.188H519.327V41.4374ZM514.097 44.3603H519.327V63.1509H514.097V44.3603Z" fill="white"/>
<path d="M530.735 43.8442C536.737 43.8442 540.623 47.7743 540.623 53.7676C540.623 59.7364 536.762 63.6665 530.735 63.6665C524.757 63.6665 520.896 59.7364 520.896 53.7676C520.896 47.7743 524.757 43.8442 530.735 43.8442ZM530.735 59.761C534.321 59.761 535.367 56.7397 535.367 53.7676C535.367 50.7464 534.296 47.7252 530.735 47.7252C527.198 47.7252 526.127 50.7464 526.127 53.7676C526.127 56.7643 527.198 59.761 530.735 59.761Z" fill="white"/>
<path d="M542.117 44.3604H547.099V46.9886H547.198C548.518 44.8762 550.81 43.8691 553.026 43.8691C558.58 43.8691 560 46.9641 560 51.6064V63.1755H554.77V52.5644C554.77 49.4695 553.848 47.9466 551.407 47.9466C548.568 47.9466 547.348 49.5186 547.348 53.3258V63.1755H542.117V44.3604Z" fill="white"/>
</g>
<defs>
<clipPath id="clip0_347_129550">
<rect width="560" height="70" fill="white"/>
</clipPath>
</defs>
</svg>
